<svg xmlns="http://www.w3.org/2000/svg" width="60" height="60" viewBox="0 0 13.549 13.193" style=""><g fill="none" stroke="#FFF">
<path d="M13.241 6.597a6.467 6.29 0 0 1-6.467 6.289 6.467 6.29 0 0 1-6.467-6.29A6.467 6.29 0 0 1 6.774.308a6.467 6.29 0 0 1 6.467 6.29z" stroke-width=".615" stroke-linejoin="round" paint-order="stroke fill markers" class="FGAnutIB_0"></path>
<path d="M8.035 8.195q-.026.098-.057.227-.025.124-.025.238 0 .103.03.176.032.072.135.072.14 0 .33-.098.197-.104.42-.269.221-.17.46-.387.237-.223.47-.455.232-.238.444-.476.212-.237.377-.444l.191.687q-.34.455-.703.874-.361.418-.738.739-.373.32-.75.511t-.75.191q-.216 0-.371-.072-.15-.067-.243-.186-.093-.124-.14-.28-.04-.16-.04-.335 0-.067.004-.191l.01-.253q.01-.135.016-.243.01-.109.01-.14l-1.834.114-.853.01q-.217.47-.429.832-.093.155-.196.305-.103.15-.207.269-.103.113-.206.18-.104.073-.202.073-.155 0-.253-.047-.098-.046-.155-.118-.057-.068-.083-.156-.02-.087-.02-.165 0-.134.036-.263.036-.135.103-.254l.682-1.147q.047-.072.186-.346.145-.274.367-.672.227-.403.522-.889.295-.485.636-.982.346-.5.728-.971.388-.47.79-.832.41-.367.823-.584.413-.222.821-.222.383 0 .75.237.372.238.707.78.037.073.037.125 0 .067-.037.134-.036.067-.098.119-.057.052-.129.083-.072.03-.15.03-.093 0-.217-.04-.119-.042-.227-.176-.16-.186-.336-.269-.17-.088-.341-.088-.243 0-.496.14-.253.134-.512.372-.253.232-.506.542-.253.305-.491.646t-.46.698q-.222.357-.419.682l-.361.6q-.16.273-.285.46h.946l1.597-.12.124-.278.17-.403.212-.481.228-.517.232-.517q.114-.258.212-.475.067-.196.196-.28.135-.082.285-.082.077 0 .155.026.077.02.14.072.066.047.108.124.041.073.046.176 0 .098-.088.336-.082.238-.217.558-.129.32-.294.698-.16.372-.32.75-.156.371-.29.717-.134.341-.207.6" aria-label="A" style="stroke-width: 0.5; stroke-miterlimit: 4; stroke: rgb(255, 255, 255); stroke-opacity: 1; fill: none;" font-weight="400" font-size="10.583" font-family="Damion" letter-spacing="0" word-spacing="0" stroke-width=".5" class="FGAnutIB_1"></path>
</g>
<style data-made-with="vivus-instant">.FGAnutIB_0{stroke-dasharray:41 43;stroke-dashoffset:42;animation:FGAnutIB_draw 1333ms ease-in-out 0ms forwards;}.FGAnutIB_1{stroke-dasharray:47 49;stroke-dashoffset:48;animation:FGAnutIB_draw 1333ms ease-in-out 666ms forwards;}@keyframes FGAnutIB_draw{100%{stroke-dashoffset:0;}}@keyframes FGAnutIB_fade{0%{stroke-opacity:1;}93.54838709677419%{stroke-opacity:1;}100%{stroke-opacity:0;}}</style></svg>