<svg
   xmlns:dc="http://purl.org/dc/elements/1.1/"
   xmlns:cc="http://creativecommons.org/ns#"
   xmlns:rdf="http://www.w3.org/1999/02/22-rdf-syntax-ns#"
   xmlns:svg="http://www.w3.org/2000/svg"
   xmlns="http://www.w3.org/2000/svg"
   width="60mm"
   height="60mm"
   viewBox="0 0 60 60"
   version="1.1"
   id="svg8"
   sodipodi:docname="Logov1.svg">
  <defs
     id="defs2">
    <inkscape:path-effect
       effect="attach_path"
       id="path-effect913" />
  </defs>
  <sodipodi:namedview
     id="base"
     pagecolor="#ffffff"
     bordercolor="#666666"
     borderopacity="1.0"
     inkscape:pageopacity="0.0"
     inkscape:pageshadow="2"
     inkscape:zoom="2.8"
     inkscape:cx="49.000446"
     inkscape:cy="64.64883"
     inkscape:document-units="mm"
     inkscape:current-layer="layer1"
     showgrid="false"
     inkscape:window-width="2560"
     inkscape:window-height="1377"
     inkscape:window-x="-8"
     inkscape:window-y="-8"
     inkscape:window-maximized="1" />
  <metadata
     id="metadata5">
    <rdf:RDF>
      <cc:Work
         rdf:about="">
        <dc:format>image/svg+xml</dc:format>
        <dc:type
           rdf:resource="http://purl.org/dc/dcmitype/StillImage" />
        <dc:title></dc:title>
      </cc:Work>
    </rdf:RDF>
  </metadata>
  <g
     inkscape:label="Layer 1"
     inkscape:groupmode="layer"
     id="layer1"
     transform="translate(-64.521399,-116.77067)">
    <path
       style="fill:none;stroke:#000000;stroke-width:0.61466551;stroke-linecap:butt;stroke-linejoin:round;stroke-miterlimit:4;stroke-dasharray:none;stroke-opacity:1;paint-order:stroke fill markers"
       d="m 77.762775,123.36719 a 6.4670215,6.2891855 0 0 1 -6.467022,6.28918 6.4670215,6.2891855 0 0 1 -6.467021,-6.28918 6.4670215,6.2891855 0 0 1 6.467021,-6.28919 6.4670215,6.2891855 0 0 1 6.467022,6.28919 z"
       id="path16"
       inkscape:connector-curvature="0" />
    <g
       aria-label="A
"
       style="font-style:normal;font-variant:normal;font-weight:normal;font-stretch:normal;font-size:10.58333302px;line-height:1.25;font-family:Damion;-inkscape-font-specification:Damion;letter-spacing:0px;word-spacing:0px;fill:#000000;fill-opacity:1;stroke:none;stroke-width:0.26458332"
       id="text879"
       inkscape:path-effect="#path-effect913">
      <path
         d="m 72.556661,124.96548 q -0.02584,0.0982 -0.05684,0.22738 -0.02584,0.12402 -0.02584,0.23771 0,0.10336 0.031,0.1757 0.03101,0.0724 0.134359,0.0724 0.139526,0 0.330729,-0.0982 0.196371,-0.10335 0.418579,-0.26871 0.222209,-0.17054 0.459921,-0.38758 0.237711,-0.22221 0.470255,-0.45475 0.232544,-0.23771 0.444417,-0.47542 0.211874,-0.23771 0.377238,-0.44442 l 0.191203,0.6873 q -0.341064,0.45475 -0.702799,0.87333 -0.361735,0.41858 -0.738973,0.73897 -0.372071,0.3204 -0.749309,0.5116 -0.377237,0.1912 -0.749308,0.1912 -0.217041,0 -0.37207,-0.0724 -0.149862,-0.0672 -0.242879,-0.18603 -0.09302,-0.12402 -0.139527,-0.27905 -0.04134,-0.1602 -0.04134,-0.3359 0,-0.0672 0.0052,-0.1912 0.0052,-0.12403 0.01034,-0.25322 0.01033,-0.13436 0.0155,-0.24288 0.01033,-0.10852 0.01033,-0.13952 l -1.834513,0.11368 -0.852661,0.0103 q -0.217041,0.47026 -0.428914,0.83199 -0.09302,0.15503 -0.196371,0.30489 -0.103353,0.14986 -0.206706,0.26872 -0.103352,0.11369 -0.206705,0.18087 -0.103353,0.0723 -0.201538,0.0723 -0.15503,0 -0.253215,-0.0465 -0.09819,-0.0465 -0.155029,-0.11885 -0.05684,-0.0672 -0.08268,-0.15503 -0.02067,-0.0879 -0.02067,-0.16537 0,-0.13435 0.03617,-0.26354 0.03617,-0.13436 0.103353,-0.25322 l 0.682129,-1.14722 q 0.04651,-0.0723 0.186035,-0.34623 0.144694,-0.27388 0.366903,-0.67179 0.227376,-0.40308 0.521932,-0.88884 0.294556,-0.48575 0.63562,-0.98185 0.346232,-0.50126 0.728638,-0.97152 0.387573,-0.47025 0.790649,-0.83199 0.408244,-0.3669 0.821655,-0.58394 0.413412,-0.22221 0.821656,-0.22221 0.382405,0 0.749308,0.23771 0.37207,0.23771 0.707967,0.78032 0.03617,0.0723 0.03617,0.12402 0,0.0672 -0.03617,0.13436 -0.03617,0.0672 -0.09819,0.11886 -0.05684,0.0517 -0.129191,0.0827 -0.07235,0.031 -0.149862,0.031 -0.09302,0 -0.217041,-0.0413 -0.118856,-0.0413 -0.227376,-0.1757 -0.160197,-0.18603 -0.335897,-0.26872 -0.170532,-0.0878 -0.341065,-0.0878 -0.242879,0 -0.496093,0.13952 -0.253215,0.13436 -0.511597,0.37207 -0.253214,0.23255 -0.506429,0.5426 -0.253214,0.3049 -0.490926,0.64596 -0.237712,0.34106 -0.45992,0.69763 -0.222209,0.35657 -0.418579,0.68213 -0.196371,0.32556 -0.361735,0.59945 -0.160197,0.27388 -0.284221,0.45992 h 0.945679 l 1.596802,-0.11886 q 0.04651,-0.10335 0.124023,-0.27905 0.07752,-0.18087 0.170532,-0.40308 0.09819,-0.22221 0.211874,-0.48059 0.113688,-0.25838 0.227376,-0.51676 0.118856,-0.26355 0.232544,-0.51677 0.113688,-0.25838 0.211873,-0.47542 0.06718,-0.19637 0.196371,-0.27905 0.134358,-0.0827 0.28422,-0.0827 0.07752,0 0.155029,0.0258 0.07752,0.0207 0.139527,0.0724 0.06718,0.0465 0.10852,0.12402 0.04134,0.0724 0.04651,0.1757 0,0.0982 -0.08785,0.3359 -0.08268,0.23771 -0.217041,0.55811 -0.129191,0.32039 -0.294556,0.69763 -0.160197,0.37207 -0.320393,0.74931 -0.15503,0.37207 -0.289388,0.7183 -0.134359,0.34106 -0.206706,0.59944 l -2.3e-5,-2e-5"
         style="stroke-width:0.26458332"
         id="path910"
         inkscape:connector-curvature="0"
         inkscape:original-d="m 72.556661,124.96548 q -0.02584,0.0982 -0.05684,0.22738 -0.02584,0.12402 -0.02584,0.23771 0,0.10336 0.031,0.1757 0.03101,0.0724 0.134359,0.0724 0.139526,0 0.330729,-0.0982 0.196371,-0.10335 0.418579,-0.26871 0.222209,-0.17054 0.459921,-0.38758 0.237711,-0.22221 0.470255,-0.45475 0.232544,-0.23771 0.444417,-0.47542 0.211874,-0.23771 0.377238,-0.44442 l 0.191203,0.6873 q -0.341064,0.45475 -0.702799,0.87333 -0.361735,0.41858 -0.738973,0.73897 -0.372071,0.3204 -0.749309,0.5116 -0.377237,0.1912 -0.749308,0.1912 -0.217041,0 -0.37207,-0.0724 -0.149862,-0.0672 -0.242879,-0.18603 -0.09302,-0.12402 -0.139527,-0.27905 -0.04134,-0.1602 -0.04134,-0.3359 0,-0.0672 0.0052,-0.1912 0.0052,-0.12403 0.01034,-0.25322 0.01033,-0.13436 0.0155,-0.24288 0.01033,-0.10852 0.01033,-0.13952 l -1.834513,0.11368 -0.852661,0.0103 q -0.217041,0.47026 -0.428914,0.83199 -0.09302,0.15503 -0.196371,0.30489 -0.103353,0.14986 -0.206706,0.26872 -0.103352,0.11369 -0.206705,0.18087 -0.103353,0.0723 -0.201538,0.0723 -0.15503,0 -0.253215,-0.0465 -0.09819,-0.0465 -0.155029,-0.11885 -0.05684,-0.0672 -0.08268,-0.15503 -0.02067,-0.0879 -0.02067,-0.16537 0,-0.13435 0.03617,-0.26354 0.03617,-0.13436 0.103353,-0.25322 l 0.682129,-1.14722 q 0.04651,-0.0723 0.186035,-0.34623 0.144694,-0.27388 0.366903,-0.67179 0.227376,-0.40308 0.521932,-0.88884 0.294556,-0.48575 0.63562,-0.98185 0.346232,-0.50126 0.728638,-0.97152 0.387573,-0.47025 0.790649,-0.83199 0.408244,-0.3669 0.821655,-0.58394 0.413412,-0.22221 0.821656,-0.22221 0.382405,0 0.749308,0.23771 0.37207,0.23771 0.707967,0.78032 0.03617,0.0723 0.03617,0.12402 0,0.0672 -0.03617,0.13436 -0.03617,0.0672 -0.09819,0.11886 -0.05684,0.0517 -0.129191,0.0827 -0.07235,0.031 -0.149862,0.031 -0.09302,0 -0.217041,-0.0413 -0.118856,-0.0413 -0.227376,-0.1757 -0.160197,-0.18603 -0.335897,-0.26872 -0.170532,-0.0878 -0.341065,-0.0878 -0.242879,0 -0.496093,0.13952 -0.253215,0.13436 -0.511597,0.37207 -0.253214,0.23255 -0.506429,0.5426 -0.253214,0.3049 -0.490926,0.64596 -0.237712,0.34106 -0.45992,0.69763 -0.222209,0.35657 -0.418579,0.68213 -0.196371,0.32556 -0.361735,0.59945 -0.160197,0.27388 -0.284221,0.45992 h 0.945679 l 1.596802,-0.11886 q 0.04651,-0.10335 0.124023,-0.27905 0.07752,-0.18087 0.170532,-0.40308 0.09819,-0.22221 0.211874,-0.48059 0.113688,-0.25838 0.227376,-0.51676 0.118856,-0.26355 0.232544,-0.51677 0.113688,-0.25838 0.211873,-0.47542 0.06718,-0.19637 0.196371,-0.27905 0.134358,-0.0827 0.28422,-0.0827 0.07752,0 0.155029,0.0258 0.07752,0.0207 0.139527,0.0724 0.06718,0.0465 0.10852,0.12402 0.04134,0.0724 0.04651,0.1757 0,0.0982 -0.08785,0.3359 -0.08268,0.23771 -0.217041,0.55811 -0.129191,0.32039 -0.294556,0.69763 -0.160197,0.37207 -0.320393,0.74931 -0.15503,0.37207 -0.289388,0.7183 -0.134359,0.34106 -0.206706,0.59944 z" />
    </g>
  </g>
</svg>
